<svg width="288" height="344" viewBox="0 0 288 344" fill="none" xmlns="http://www.w3.org/2000/svg">
<path d="M71.8826 71.1328L71.0004 74.0001L19 58L19.8823 55.1327L71.8826 71.1328Z" fill="#3EC7F1"/>
<path d="M45.5584 108.433L42.9999 110L13 61L15.5585 59.4335L45.5584 108.433Z" fill="#21A9E3"/>
<path d="M136.944 17.8151L139 19.9997L88 68L85.9439 65.8154L136.944 17.8151Z" fill="#FAFAFB"/>
<path d="M73.5302 79.2971L75.9999 81.0003L56 110L53.5304 108.297L73.5302 79.2971Z" fill="#23B7F3"/>
<path d="M132.892 89.1356L132 92.0001L87 78L87.8912 75.1354L132.892 89.1356Z" fill="#33C4F2"/>
<path d="M41.6124 119.34L43.0001 122L20 134L18.6123 131.34L41.6124 119.34Z" fill="#22AFF0"/>
<path d="M74.044 139.924L90.5439 155.923L88.4559 158.077L71.9356 142.057L54.9804 124.981L57.1091 122.866L74.044 139.924Z" fill="white"/>
<path d="M133.191 94.1111L134 96.9999L59 118L58.1911 115.111L133.191 94.1111Z" fill="#0AA5F7"/>
<path d="M62.0041 189.019L55.0356 157.827L55.0276 157.788L48.996 126.981L51.9402 126.403L57.9678 157.192L64.932 188.365L62.0041 189.019Z" fill="#0D57E8"/>
<path d="M136.533 102.293L139 104L103 156L100.533 154.292L136.533 102.293Z" fill="#FDFDFD"/>
<path d="M88.7752 168.987L90.9998 171L72 192L69.7754 189.987L88.7752 168.987Z" fill="#32BDF4"/>
<path d="M58.7055 203.067L61.0002 205L45 224L42.7053 222.068L58.7055 203.067Z" fill="#21B2F3"/>
<path d="M137.593 291.458L136 294L45 237L46.5925 234.458L137.593 291.458Z" fill="#FAFBFC"/>
<path d="M137.432 294.243L135 296L70 206L72.4321 204.244L137.432 294.243Z" fill="#FAFAFB"/>
<path d="M146 81H142L142 23H146L146 81Z" fill="#0877E5"/>
<path d="M61.2097 189.971L59.0001 192L14 143L16.2096 140.971L61.2097 189.971Z" fill="white"/>
<path d="M202.077 65.8356L200 67.9998L150 20L152.078 17.8358L202.077 65.8356Z" fill="#F2F2F4"/>
<path d="M200.109 75.1353L201 77.9999L156 92L155.109 89.1354L200.109 75.1353Z" fill="#1DB3FA"/>
<path d="M268.118 55.1326L269 57.9999L217 74L216.118 71.1327L268.118 55.1326Z" fill="#FCFDFE"/>
<path d="M230.799 115.108L230 118L154 97L154.799 94.1084L230.799 115.108Z" fill="#17A3E8"/>
<path d="M187.466 154.292L185 156L149 104L151.467 102.292L187.466 154.292Z" fill="#199BF1"/>
<path d="M230.912 122.846L233 125L200 157L197.912 154.846L230.912 122.846Z" fill="white"/>
<path d="M235.446 109.263L233 111L211 80L213.447 78.2638L235.446 109.263Z" fill="white"/>
<path d="M271.447 60.4249L274 62.0002L245 109L242.447 107.425L271.447 60.4249Z" fill="#F8F9FB"/>
<path d="M269.388 131.34L268 134L245 122L246.388 119.34L269.388 131.34Z" fill="white"/>
<path d="M218.224 189.987L216 192L197 171L199.225 168.987L218.224 189.987Z" fill="white"/>
<path d="M244.316 221.093L242 223L228 206L230.316 204.093L244.316 221.093Z" fill="white"/>
<path d="M236.06 125.403L239 126L226 190L223.06 189.403L236.06 125.403Z" fill="#14A9F0"/>
<path d="M240.394 234.466L242 237L152 294L150.395 291.466L240.394 234.466Z" fill="#18AAF6"/>
<path d="M269.765 141.999L272 144L229 192L226.766 189.998L269.765 141.999Z" fill="#0677F8"/>
<path d="M216.584 203.221L219 205L152 296L149.584 294.221L216.584 203.221Z" fill="#0AA2EF"/>
<path d="M216.584 203.221L219 205L152 296L149.584 294.221L216.584 203.221Z" fill="#1173E1"/>
<path d="M280 126H276V63H280V126Z" fill="#FCFDFE"/>
<path d="M12 127H8L8 63H12L12 127Z" fill="#0A9DED"/>
<path d="M134.755 12.1988L136 16L20 54L18.7548 50.1988L134.755 12.1988Z" fill="#10A1F2"/>
<path d="M269.265 50.2054L268 54.0001L154 16L155.265 12.2053L269.265 50.2054Z" fill="#0DA8FA"/>
<path d="M85.427 221.055L85.9996 224L50 231L49.4274 228.055L85.427 221.055Z" fill="#FAFBFD"/>
<path d="M144.419 210.029L144 213L73 203L73.4184 200.029L144.419 210.029Z" fill="#094EDE"/>
<path d="M213.576 200.03L214 203L144 213L143.576 210.03L213.576 200.03Z" fill="#0768EB"/>
<path d="M204.032 225.018L177.806 211.33L177.769 211.31L151.77 196.81L151.759 196.804L100.986 167.992L102.466 165.383L153.24 194.195L153.239 194.196L179.23 208.689L205.421 222.357L204.032 225.018Z" fill="#028EF2"/>
<path d="M240.618 229.064L240 232L202 224L202.618 221.064L240.618 229.064Z" fill="#19B2EC"/>
<path d="M33.08 222.215L25.1706 204.308L25.1357 204.229L25.1074 204.148L18.6078 185.147L18.5885 185.092L18.573 185.036L13.5726 167.036L13.5502 166.954L13.5343 166.87L9.94465 147.776L13.8751 147.037L17.4496 166.042L22.4119 183.91L28.8664 202.775L36.7399 220.599L33.08 222.215Z" fill="white"/>
<path d="M254.83 221.808L262.739 203.902L262.774 203.823L262.802 203.741L269.302 184.741L269.321 184.686L269.337 184.629L274.337 166.629L274.36 166.547L274.376 166.463L277.965 147.369L274.035 146.631L270.46 165.636L265.498 183.503L259.043 202.368L251.17 220.192L254.83 221.808Z" fill="white"/>
<path d="M64.2035 261.9L75.6766 275.368L88.6775 288.868L102.678 301.868L117.67 314.361L146.287 335.449L143.914 338.669L115.203 317.513L115.157 317.475L100.071 304.904L100.03 304.869L99.9906 304.833L85.9107 291.758L85.8699 291.72L85.8304 291.68L72.756 278.102L72.7137 278.059L72.6747 278.012L61.0643 264.383L61.0238 264.328L40.9089 237.174L44.1235 234.793L64.2035 261.9Z" fill="#0BA0FA"/>
<path d="M223.635 261.889L212.14 275.382L199.163 288.859L185.151 301.87L170.144 314.375L141.539 335.454L143.911 338.673L172.576 317.552L172.623 317.517L172.669 317.479L187.757 304.907L187.797 304.872L187.837 304.835L201.918 291.76L201.959 291.723L201.998 291.683L215.072 278.104L215.115 278.06L215.155 278.014L226.765 264.384L226.806 264.33L246.921 237.173L243.707 234.793L223.635 261.889Z" fill="#027CFB"/>
<path d="M84.4544 224.624L82.9997 222L184 166L185.455 168.624L84.4544 224.624Z" fill="#FAFBFD"/>
<path d="M146 336H142V305H146V336Z" fill="#FAFCFE"/>
<path d="M156 12C156 18.6274 150.627 24 144 24C137.373 24 132 18.6274 132 12C132 5.37258 137.373 0 144 0C150.627 0 156 5.37258 156 12Z" fill="#0698FE"/>
<path d="M158 93C158 100.732 151.732 107 144 107C136.268 107 130 100.732 130 93C130 85.268 136.268 79 144 79C151.732 79 158 85.268 158 93Z" fill="#0289FD"/>
<path d="M288 53.5C288 59.8513 282.851 65 276.5 65C270.149 65 265 59.8513 265 53.5C265 47.1487 270.149 42 276.5 42C282.851 42 288 47.1487 288 53.5Z" fill="#F6FAFB"/>
<path d="M260 229.5C260 235.851 254.851 241 248.5 241C242.149 241 237 235.851 237 229.5C237 223.149 242.149 218 248.5 218C254.851 218 260 223.149 260 229.5Z" fill="#F7FBFC"/>
<path d="M155 295.5C155 301.851 149.851 307 143.5 307C137.149 307 132 301.851 132 295.5C132 289.149 137.149 284 143.5 284C149.851 284 155 289.149 155 295.5Z" fill="#F5F9FC"/>
<path d="M234 197.5C234 203.851 228.851 209 222.5 209C216.149 209 211 203.851 211 197.5C211 191.149 216.149 186 222.5 186C228.851 186 234 191.149 234 197.5Z" fill="#0594FD"/>
<path d="M288 136.5C288 142.851 282.851 148 276.5 148C270.149 148 265 142.851 265 136.5C265 130.149 270.149 125 276.5 125C282.851 125 288 130.149 288 136.5Z" fill="#0897FE"/>
<path d="M203 162.5C203 168.851 197.851 174 191.5 174C185.149 174 180 168.851 180 162.5C180 156.149 185.149 151 191.5 151C197.851 151 203 156.149 203 162.5Z" fill="#F5F9FC"/>
<path d="M250 116.5C250 122.851 244.851 128 238.5 128C232.149 128 227 122.851 227 116.5C227 110.149 232.149 105 238.5 105C244.851 105 250 110.149 250 116.5Z" fill="#F6FAFD"/>
<path d="M51 229.5C51 235.851 45.8513 241 39.5 241C33.1487 241 28 235.851 28 229.5C28 223.149 33.1487 218 39.5 218C45.8513 218 51 223.149 51 229.5Z" fill="#0593FF"/>
<path d="M77 197.5C77 203.851 71.8513 209 65.5 209C59.1487 209 54 203.851 54 197.5C54 191.149 59.1487 186 65.5 186C71.8513 186 77 191.149 77 197.5Z" fill="#0287FE"/>
<path d="M107 162.5C107 168.851 101.851 174 95.5 174C89.1487 174 84 168.851 84 162.5C84 156.149 89.1487 151 95.5 151C101.851 151 107 156.149 107 162.5Z" fill="#F6FAFD"/>
<path d="M23 136.5C23 142.851 17.8513 148 11.5 148C5.14873 148 0 142.851 0 136.5C0 130.149 5.14873 125 11.5 125C17.8513 125 23 130.149 23 136.5Z" fill="#F6FAFD"/>
<path d="M62 116.5C62 122.851 56.8513 128 50.5 128C44.1487 128 39 122.851 39 116.5C39 110.149 44.1487 105 50.5 105C56.8513 105 62 110.149 62 116.5Z" fill="#038CFE"/>
<path d="M219 72.5C219 78.8513 213.851 84 207.5 84C201.149 84 196 78.8513 196 72.5C196 66.1487 201.149 61 207.5 61C213.851 61 219 66.1487 219 72.5Z" fill="#F6FAFD"/>
<path d="M92 73.5C92 79.8513 86.8513 85 80.5 85C74.1487 85 69 79.8513 69 73.5C69 67.1487 74.1487 62 80.5 62C86.8513 62 92 67.1487 92 73.5Z" fill="#F6FAFD"/>
<path d="M23 53.5C23 59.8513 17.8513 65 11.5 65C5.14873 65 0 59.8513 0 53.5C0 47.1487 5.14873 42 11.5 42C17.8513 42 23 47.1487 23 53.5Z" fill="#099BFE"/>
</svg>
